<mxfile host="65bd71144e">
    <diagram id="K9N5ZNZ1flYij0LCveo0" name="Page-1">
        <mxGraphModel dx="662" dy="398" grid="1" gridSize="10" guides="1" tooltips="1" connect="1" arrows="1" fold="1" page="1" pageScale="1" pageWidth="850" pageHeight="1100" math="0" shadow="0">
            <root>
                <mxCell id="0"/>
                <mxCell id="1" parent="0"/>
                <mxCell id="2" value="" style="shape=image;verticalLabelPosition=bottom;labelBackgroundColor=default;verticalAlign=top;aspect=fixed;imageAspect=0;image=https://redux.js.org/assets/images/ReduxDataFlowDiagram-49fa8c3968371d9ef6f2a1486bd40a26.gif;" parent="1" vertex="1">
                    <mxGeometry x="10" y="10" width="413.34" height="310" as="geometry"/>
                </mxCell>
            </root>
        </mxGraphModel>
    </diagram>
</mxfile>